<svg xmlns="http://www.w3.org/2000/svg" width="27" height="21" viewBox="0 0 27 21">
  <defs>
    <style>
      .cls-1 {
        fill: #a6afb6;
        fill-rule: evenodd;
      }
    </style>
  </defs>
  <path id="icon_MV" class="cls-1" d="M978.5,376a35.748,35.748,0,0,0-9.433,1.011,5,5,0,0,0-3.633,4.36,30.384,30.384,0,0,0,0,10.24A5,5,0,0,0,969.093,396a44.615,44.615,0,0,0,18.814,0,5,5,0,0,0,3.662-4.385,30.36,30.36,0,0,0,0-10.236,5,5,0,0,0-3.634-4.363A35.734,35.734,0,0,0,978.5,376h0Zm0,1a33.842,33.842,0,0,0-8.734.915,4.552,4.552,0,0,0-3.364,3.945,26.854,26.854,0,0,0,0,9.264,4.554,4.554,0,0,0,3.39,3.966,42.234,42.234,0,0,0,17.421,0,4.552,4.552,0,0,0,3.39-3.967,26.8,26.8,0,0,0,0-9.261,4.553,4.553,0,0,0-3.364-3.947A33.847,33.847,0,0,0,978.5,377h0Zm-2.994,13.753h-0.512v-8.507h0.512v8.507Zm7.111-4.035-7.5-4.254,0.256-.436,7.5,4.254Zm-7.239,4.254-0.256-.436,7.5-4.254,0.256,0.436ZM975.25,382a0.252,0.252,0,1,0,.256.252A0.254,0.254,0,0,0,975.25,382Zm7.488,4.254a0.252,0.252,0,1,0,.256.252A0.254,0.254,0,0,0,982.738,386.249Zm-7.267,4.379a0.257,0.257,0,0,0-.349-0.091,0.249,0.249,0,0,0-.094.343,0.26,0.26,0,0,0,.35.093A0.251,0.251,0,0,0,975.471,390.628Zm-0.23-8.364v8.5l7.526-4.245Z" transform="translate(-965 -376)"/>
</svg>
